<svg width="375" height="812" viewBox="0 0 375 812" fill="none" xmlns="http://www.w3.org/2000/svg">
<g opacity="0.2">
<path fill-rule="evenodd" clip-rule="evenodd" d="M262.658 599.303C232.967 603.029 197.384 616.064 169.042 606.537C140.7 597.01 104.411 582.673 83.002 561.791C61.5933 540.909 54.1616 499.575 43.9342 471.471C33.7067 443.367 33.779 422.265 36.7564 392.506C39.7338 362.747 52.3242 326.504 67.9173 300.984C83.5104 275.464 108.262 261.403 133.382 245.176C158.502 228.95 187.199 218.973 216.872 215.255C246.544 211.536 268.107 201.376 296.454 210.902C324.801 220.427 348.314 229.931 369.721 250.813C391.129 271.696 414.684 305.065 424.911 333.17C435.138 361.275 425.353 384.926 422.379 414.682C419.405 444.437 420.082 472.944 404.475 498.479C388.868 524.013 348.747 573.268 323.68 589.44C298.612 605.612 292.349 595.577 262.658 599.303H262.658Z" stroke="white" stroke-width="2"/>
<path fill-rule="evenodd" clip-rule="evenodd" d="M192.643 640.303C162.952 644.029 127.369 657.064 99.0273 647.537C70.6855 638.01 34.3961 623.673 12.9874 602.791C-8.42136 581.909 -15.853 540.575 -26.0805 512.471C-36.3079 484.367 -36.2356 463.265 -33.2582 433.506C-30.2808 403.747 -17.6905 367.504 -2.09737 341.984C13.4957 316.464 38.2473 302.403 63.3675 286.176C88.4877 269.95 117.185 259.973 146.857 256.255C176.529 252.536 198.092 242.376 226.439 251.902C254.786 261.427 278.299 270.931 299.707 291.813C321.114 312.696 344.669 346.065 354.896 374.17C365.123 402.275 355.338 425.926 352.364 455.682C349.391 485.437 350.067 513.944 334.46 539.479C318.853 565.013 278.732 614.268 253.665 630.44C228.598 646.612 222.334 636.577 192.643 640.303H192.643Z" stroke="white" stroke-width="2"/>
<path fill-rule="evenodd" clip-rule="evenodd" d="M338.986 605.985C308.1 621.827 274.484 650.155 239.811 651.016C205.137 651.877 159.893 650.648 128.273 636.381C96.6524 622.113 72.155 580.007 49.8578 553.43C27.5606 526.853 19.2684 503.823 10.7086 470.203C2.14877 436.582 1.49539 392.08 8.36886 358.075C15.2423 324.07 36.6447 298.922 57.59 271.267C78.5352 243.612 105.859 221.35 136.727 205.523C167.596 189.695 187.071 170.065 221.749 169.2C256.427 168.336 285.827 169.365 317.446 183.634C349.065 197.902 387.979 224.929 410.275 251.507C432.572 278.085 431.288 307.749 439.851 341.363C448.413 374.978 460.46 405.783 453.576 439.81C446.693 473.836 422.499 543.446 401.59 571.021C380.681 598.595 369.873 590.142 338.986 605.985Z" stroke="white" stroke-width="2"/>
<path fill-rule="evenodd" clip-rule="evenodd" d="M424.838 582.982C397.455 612.506 372.049 656.723 334.596 671.42C297.142 686.116 247.336 702.73 207.209 699.724C167.081 696.718 123.675 660.541 88.827 640.419C53.9793 620.296 35.8042 598.482 13.1367 565.231C-9.53075 531.98 -27.8968 483.73 -33.8941 443.936C-39.8914 404.141 -26.538 368.236 -14.6774 329.78C-2.81673 291.324 18.1359 256.216 45.5053 226.715C72.8748 197.214 86.3162 168.089 123.774 153.387C161.231 138.684 193.687 128.141 233.813 131.147C273.94 134.154 327.079 148.175 361.927 168.299C396.774 188.422 407.143 221.267 429.81 254.51C452.478 287.754 477.83 316.554 483.825 356.375C489.82 396.197 491.061 481.674 479.208 520.028C467.355 558.383 452.221 553.457 424.838 582.982H424.838Z" stroke="white" stroke-width="2"/>
<path fill-rule="evenodd" clip-rule="evenodd" d="M509.295 523.842C491.158 566.891 481.006 625.17 446.01 656.051C411.014 686.932 363.314 724.804 318.381 737.45C273.448 750.095 211.781 727.884 165.813 719.777C119.845 711.67 91.3803 695.103 53.4813 667.853C15.5822 640.602 -23.5781 595.295 -45.9017 554.297C-68.2253 513.299 -67.9128 468.862 -70.2395 422.237C-72.5662 375.613 -63.654 329.03 -45.523 286.012C-27.392 242.995 -24.2941 205.914 10.7037 175.025C45.7014 144.135 76.8972 119.764 121.83 107.12C166.762 94.4757 230.247 88.6734 276.216 96.782C322.185 104.891 346.516 136.578 384.412 163.821C422.309 191.064 461.368 212.397 483.7 253.425C506.032 294.454 541.293 387.135 543.588 433.646C545.883 480.157 527.431 480.794 509.295 523.842Z" stroke="white" stroke-width="2"/>
<path fill-rule="evenodd" clip-rule="evenodd" d="M577.896 425.866C575.203 479.987 587.256 547.542 561.359 595.09C535.462 642.638 498.491 702.846 454.528 734.46C410.566 766.074 334.536 766.331 281.213 775.734C227.89 785.137 190.289 778.373 138.168 763.707C86.0459 749.04 25.3862 715.192 -15.2111 679.36C-55.8085 643.528 -73.0957 594.966 -94.1277 545.067C-115.16 495.167 -123.924 440.853 -121.225 386.768C-118.527 332.683 -129.86 291.034 -103.964 243.476C-78.0687 195.919 -53.7318 156.975 -9.76941 125.363C34.193 93.7518 101.093 62.2365 154.418 52.8352C207.742 43.4339 246.834 68.3205 298.95 82.9791C351.066 97.6377 402.105 105.394 442.724 141.255C483.342 177.117 558.545 264.153 579.497 313.941C600.449 363.73 580.588 371.744 577.896 425.866V425.866Z" stroke="white" stroke-width="2"/>
<path fill-rule="evenodd" clip-rule="evenodd" d="M613.807 291.846C632.342 351.909 672.279 420.765 662.912 482.87C653.545 544.975 637.129 625.275 601.749 677.179C566.369 729.083 483.595 759.532 429.201 790.94C374.806 822.347 331.137 829.894 268.504 834.589C205.871 839.283 126.322 826.456 67.8548 803.507C9.38765 780.557 -28.7203 734.482 -71.4411 688.434C-114.162 642.386 -145.262 586.66 -163.775 526.634C-182.288 466.608 -211.164 425.706 -201.803 363.591C-192.441 301.476 -181.362 249.369 -145.981 197.467C-110.6 145.565 -50.1782 84.6665 4.21843 53.2599C58.615 21.8534 111.099 33.4694 173.723 28.7687C236.347 24.068 295.058 12.2707 353.56 35.2442C412.063 58.2177 528.563 123.251 571.152 169.209C613.742 215.167 595.273 231.784 613.807 291.846V291.846Z" stroke="white" stroke-width="2"/>
<path fill-rule="evenodd" clip-rule="evenodd" d="M599.788 131.51C643.818 189.627 714.665 248.836 729.091 320.25C743.518 391.664 757.479 485.708 739.503 556.324C721.528 626.941 643.379 692.975 596.546 748.794C549.713 804.613 505.106 830.167 438.695 860.136C372.285 890.106 280.484 907.688 207.649 905.872C134.813 904.055 74.9959 868.952 10.1613 835.709C-54.6731 802.467 -110.68 754.062 -154.672 695.978C-198.664 637.893 -246.366 604.765 -260.802 533.342C-275.238 461.92 -283.832 400.725 -265.855 330.11C-247.877 259.496 -206.173 169.139 -159.337 113.321C-112.501 57.5021 -50.6826 49.3387 15.7152 19.3661C82.1132 -10.6065 141.431 -46.7622 214.314 -44.9333C287.198 -43.1045 439.987 -18.4422 504.642 14.755C569.298 47.9522 555.757 73.3938 599.788 131.51L599.788 131.51Z" stroke="white" stroke-width="2"/>
</g>
</svg>
